# Blender v2.83.3 OBJ File: ''
# www.blender.org
mtllib Fish.mtl
o Fish_FishMesh
v -1.015789 0.100471 0.066823
v -1.015789 0.175307 0.066823
v -1.015789 0.175307 -0.144824
v -1.015789 0.100471 -0.144824
v 0.734211 0.096314 -0.351220
v 0.734211 0.179464 -0.351220
v 0.984211 0.178269 -0.479077
v 0.984211 0.097509 -0.479077
v 0.984211 0.178269 0.401076
v 0.984211 0.097509 0.401076
v -0.765789 0.040873 0.235377
v -0.765789 0.234905 0.235377
v 0.734211 0.096314 0.273219
v -0.765789 0.234905 -0.313379
v 0.734211 0.179464 0.273219
v 0.484211 0.206212 -0.232232
v 0.484211 0.206212 0.154230
v 0.234211 0.246737 -0.439496
v 0.234211 0.246737 0.361494
v -0.015789 0.257495 -0.479078
v -0.015789 0.257495 0.401076
v -0.265789 0.257495 -0.479078
v -0.265789 0.257495 0.401076
v -0.515789 0.241375 -0.419765
v -0.515789 0.241375 0.341764
v -0.765789 0.040873 -0.313379
v -0.515789 0.034403 -0.419765
v -0.515789 0.034403 0.341764
v -0.265789 0.018283 -0.479078
v -0.265789 0.018283 0.401076
v -0.015789 0.018283 -0.479078
v -0.015789 0.018283 0.401076
v 0.234211 0.029041 -0.439496
v 0.234211 0.029041 0.361494
v 0.484211 0.069566 -0.232232
v 0.484211 0.069566 0.154230
vt 0.696324 0.570386
vt 0.696324 0.570386
vt 0.701339 0.486017
vt 0.701339 0.486017
vt 0.195208 0.260739
vt 0.195208 0.260739
vt 0.125235 0.189342
vt 0.125235 0.189342
vt 0.104380 0.540197
vt 0.104380 0.540197
vt 0.619327 0.617148
vt 0.619327 0.617148
vt 0.180412 0.509659
vt 0.637823 0.366036
vt 0.694929 0.492490
vt 0.693577 0.540182
vt 0.633977 0.643036
vt 0.171933 0.182870
vt 0.200702 0.245637
vt 0.183159 0.526918
vt 0.151077 0.544512
vt 0.268139 0.339387
vt 0.259897 0.499914
vt 0.316753 0.354861
vt 0.315170 0.518826
vt 0.393440 0.275373
vt 0.387235 0.628385
vt 0.507647 0.256968
vt 0.466648 0.685490
vt 0.568257 0.294569
vt 0.554790 0.684433
vt 0.632330 0.398397
vt 0.561848 0.335560
vt 0.543803 0.639128
vt 0.490250 0.291487
vt 0.469395 0.642342
vt 0.417247 0.271058
vt 0.396392 0.621913
vt 0.343306 0.266407
vt 0.324326 0.585706
vt 0.265392 0.328600
vt 0.256235 0.482655
vt 0.151077 0.544512
vt 0.183159 0.526918
vt 0.259897 0.499914
vt 0.315170 0.518826
vt 0.387235 0.628385
vt 0.466648 0.685490
vt 0.554790 0.684433
vt 0.543803 0.639128
vt 0.678448 0.486017
vt 0.678448 0.486017
vt 0.632330 0.398397
vt 0.561848 0.335560
vt 0.490250 0.291487
vt 0.417247 0.271058
vt 0.343306 0.266408
vt 0.265392 0.328600
vn -1.0000 -0.0000 0.0000
vn -0.4553 0.0000 -0.8903
vn 1.0000 0.0000 0.0000
vn -0.5590 -0.0000 0.8292
vn 0.0048 -1.0000 -0.0000
vn -0.2319 0.9727 0.0000
vn 0.0048 1.0000 0.0000
vn 0.1064 0.9943 0.0000
vn 0.1600 0.9871 0.0000
vn 0.0430 0.9991 0.0000
vn 0.0000 1.0000 0.0000
vn -0.0643 0.9979 0.0000
vn -0.0259 0.9997 0.0000
vn -0.2319 -0.9727 -0.0000
vn -0.0259 -0.9997 -0.0000
vn -0.0643 -0.9979 -0.0000
vn 0.0000 -1.0000 -0.0000
vn 0.0430 -0.9991 -0.0000
vn 0.1600 -0.9871 -0.0000
vn 0.1064 -0.9943 -0.0000
vn -0.4553 0.0000 0.8903
vn -0.4298 -0.0000 0.9029
vn 0.6382 -0.0000 0.7698
vn 0.1564 -0.0000 0.9877
vn 0.0000 -0.0000 1.0000
vn -0.2308 -0.0000 0.9730
vn -0.3916 -0.0000 0.9201
vn -0.5590 0.0000 -0.8291
vn -0.3916 0.0000 -0.9202
vn -0.2308 0.0000 -0.9730
vn 0.0000 0.0000 -1.0000
vn 0.1564 0.0000 -0.9877
vn 0.6382 -0.0000 -0.7698
vn -0.4298 0.0000 -0.9029
usemtl None
s 1
f 1/1/1 2/2/1 3/3/1 4/4/1
f 5/5/2 6/6/2 7/7/2 8/8/2
f 8/8/3 7/7/3 9/9/3 10/10/3
f 11/11/4 12/12/4 2/2/4 1/1/4
f 5/5/5 8/8/5 10/10/5 13/13/5
f 14/14/6 3/15/6 2/16/6 12/17/6
f 7/18/7 6/19/7 15/20/7 9/21/7
f 6/19/8 16/22/8 17/23/8 15/20/8
f 16/22/9 18/24/9 19/25/9 17/23/9
f 18/24/10 20/26/10 21/27/10 19/25/10
f 20/26/11 22/28/11 23/29/11 21/27/11
f 22/28/12 24/30/12 25/31/12 23/29/12
f 24/30/13 14/14/13 12/17/13 25/31/13
f 4/4/14 26/32/14 11/11/14 1/1/14
f 26/32/15 27/33/15 28/34/15 11/11/15
f 27/33/16 29/35/16 30/36/16 28/34/16
f 29/35/17 31/37/17 32/38/17 30/36/17
f 31/37/18 33/39/18 34/40/18 32/38/18
f 33/39/19 35/41/19 36/42/19 34/40/19
f 35/41/20 5/5/20 13/13/20 36/42/20
f 10/43/21 9/21/21 15/20/21 13/44/21
f 13/44/22 15/20/22 17/23/22 36/45/22
f 36/45/23 17/23/23 19/25/23 34/46/23
f 34/46/24 19/25/24 21/27/24 32/47/24
f 32/47/25 21/27/25 23/29/25 30/48/25
f 30/48/26 23/29/26 25/31/26 28/49/26
f 28/34/27 25/50/27 12/12/27 11/11/27
f 4/51/28 3/52/28 14/53/28 26/32/28
f 26/32/29 14/53/29 24/54/29 27/33/29
f 27/33/30 24/54/30 22/55/30 29/35/30
f 29/35/31 22/55/31 20/56/31 31/37/31
f 31/37/32 20/56/32 18/57/32 33/39/32
f 33/39/33 18/57/33 16/58/33 35/41/33
f 35/41/34 16/58/34 6/6/34 5/5/34
